<svg width="16.000000" height="16.000000" viewBox="0 0 16 16" fill="none" xmlns="http://www.w3.org/2000/svg" xmlns:xlink="http://www.w3.org/1999/xlink">
	<desc>
			Created with Pixso.
	</desc>
	<defs/>
	<path id="Vector" d="M1.33 8.05L1.33 9.5C1.33 12.83 2.66 14.16 6 14.16L10 14.16C13.33 14.16 14.66 12.83 14.66 9.5L14.66 5.5C14.66 2.16 13.33 0.83 10 0.83L6 0.83C2.66 0.83 1.33 2.16 1.33 5.5" stroke="#FFFFFF" stroke-opacity="1.000000" stroke-width="1.000000" stroke-linejoin="round" stroke-linecap="round"/>
	<path id="Vector" d="M4.97 6.93C4.55 6.93 4.21 7.27 4.21 7.69L4.21 11.1L6.74 11.1L6.74 6.93L4.97 6.93Z" stroke="#FFFFFF" stroke-opacity="1.000000" stroke-width="1.000000" stroke-linejoin="round"/>
	<path id="Vector" d="M7.49 3.89C7.07 3.89 6.73 4.23 6.73 4.65L6.73 11.1L9.26 11.1L9.26 4.65C9.26 4.23 8.92 3.89 8.5 3.89L7.49 3.89Z" stroke="#FFFFFF" stroke-opacity="1.000000" stroke-width="1.000000" stroke-linejoin="round"/>
	<path id="Vector" d="M9.26 8.06L9.26 11.1L11.79 11.1L11.79 8.82C11.78 8.4 11.44 8.06 11.03 8.06L9.26 8.06Z" stroke="#FFFFFF" stroke-opacity="1.000000" stroke-width="1.000000" stroke-linejoin="round"/>
	<g opacity="0.000000"/>
</svg>
