<svg width="17.000000" height="16.000000" viewBox="0 0 17 16" fill="none" xmlns="http://www.w3.org/2000/svg" xmlns:xlink="http://www.w3.org/1999/xlink">
	<defs/>
	<path id="Vector" d="M11.74 9.84C12.71 8.52 13.14 6.88 12.95 5.25C12.76 3.62 11.97 2.13 10.73 1.06C9.48 -0.01 7.88 -0.56 6.24 -0.5C4.61 -0.44 3.06 0.24 1.9 1.4C0.74 2.56 0.06 4.11 0 5.75C-0.06 7.39 0.5 8.99 1.56 10.23C2.63 11.47 4.13 12.27 5.75 12.45C7.38 12.64 9.02 12.21 10.34 11.24L10.34 11.24C10.37 11.28 10.4 11.31 10.44 11.35L14.29 15.2C14.48 15.39 14.73 15.49 15 15.49C15.26 15.49 15.51 15.39 15.7 15.2C15.89 15.01 16 14.76 16 14.49C16 14.23 15.89 13.97 15.7 13.79L11.85 9.94C11.82 9.9 11.78 9.87 11.74 9.84L11.74 9.84ZM12 5.99C12 6.72 11.85 7.43 11.58 8.1C11.3 8.77 10.9 9.37 10.39 9.88C9.87 10.39 9.27 10.8 8.6 11.08C7.93 11.35 7.22 11.49 6.5 11.49C5.77 11.49 5.06 11.35 4.39 11.08C3.72 10.8 3.12 10.39 2.61 9.88C2.1 9.37 1.69 8.77 1.41 8.1C1.14 7.43 1 6.72 1 5.99C1 4.54 1.58 3.14 2.61 2.1C3.64 1.07 5.04 0.49 6.5 0.49C7.95 0.49 9.35 1.07 10.39 2.1C11.42 3.14 12 4.54 12 5.99Z" fill="#8A8A8A" fill-opacity="1.000000" fill-rule="nonzero"/>
</svg>
